<svg width="24" height="25" viewBox="0 0 24 25" fill="none" xmlns="http://www.w3.org/2000/svg">
<path d="M21.533 7.82598C21.5482 8.03917 21.5482 8.2524 21.5482 8.46559C21.5482 14.9681 16.599 22.4605 7.5533 22.4605C4.76648 22.4605 2.17767 21.6534 0 20.2524C0.395953 20.2981 0.776625 20.3133 1.18781 20.3133C3.48727 20.3133 5.60405 19.5367 7.29441 18.2118C5.13197 18.1661 3.31978 16.7499 2.69541 14.8006C3 14.8463 3.30455 14.8767 3.62437 14.8767C4.06598 14.8767 4.50764 14.8158 4.91878 14.7092C2.66498 14.2524 0.974578 12.2727 0.974578 9.88183V9.82094C1.62937 10.1864 2.39086 10.4148 3.19791 10.4453C1.87303 9.562 1.00505 8.05441 1.00505 6.34881C1.00505 5.43512 1.24866 4.59756 1.67508 3.86659C4.09641 6.85136 7.73602 8.80056 11.8172 9.0138C11.7411 8.64831 11.6954 8.26764 11.6954 7.88692C11.6954 5.17623 13.8883 2.96814 16.6141 2.96814C18.0304 2.96814 19.3095 3.56205 20.208 4.52144C21.3197 4.30825 22.3857 3.89706 23.3299 3.33362C22.9643 4.47578 22.1877 5.43517 21.1674 6.04426C22.1573 5.93772 23.1167 5.66355 23.9999 5.28287C23.33 6.25745 22.4924 7.12544 21.533 7.82598Z" fill="#111827"/>
</svg>
