<svg width="24" height="28" viewBox="0 0 24 28" fill="none" xmlns="http://www.w3.org/2000/svg">
<g clip-path="url(#clip0_0_127)">
<path d="M21.4286 1.71429H2.57143C1.88944 1.71429 1.23539 1.98521 0.753154 2.46745C0.270918 2.94968 0 3.60374 0 4.28572L0 23.1429C0 23.8249 0.270918 24.4789 0.753154 24.9611C1.23539 25.4434 1.88944 25.7143 2.57143 25.7143H9.92411V17.5548H6.54911V13.7143H9.92411V10.7872C9.92411 7.45769 11.9063 5.61858 14.9421 5.61858C16.3961 5.61858 17.9164 5.87787 17.9164 5.87787V9.14572H16.2413C14.5907 9.14572 14.0759 10.17 14.0759 11.2205V13.7143H17.7605L17.1712 17.5548H14.0759V25.7143H21.4286C22.1106 25.7143 22.7646 25.4434 23.2468 24.9611C23.7291 24.4789 24 23.8249 24 23.1429V4.28572C24 3.60374 23.7291 2.94968 23.2468 2.46745C22.7646 1.98521 22.1106 1.71429 21.4286 1.71429Z" fill="#111827"/>
</g>
<defs>
<clipPath id="clip0_0_127">
<rect width="24" height="27.4286" fill="white"/>
</clipPath>
</defs>
</svg>
