<svg width="24" height="22" viewBox="0 0 24 22" fill="none" xmlns="http://www.w3.org/2000/svg">
<path d="M22.9023 5.21775C22.6406 4.23234 21.8695 3.45625 20.8905 3.19288C19.1159 2.71429 12 2.71429 12 2.71429C12 2.71429 4.88416 2.71429 3.10953 3.19288C2.13049 3.45629 1.3594 4.23234 1.09769 5.21775C0.622192 7.00388 0.622192 10.7305 0.622192 10.7305C0.622192 10.7305 0.622192 14.457 1.09769 16.2432C1.3594 17.2286 2.13049 17.9723 3.10953 18.2357C4.88416 18.7143 12 18.7143 12 18.7143C12 18.7143 19.1158 18.7143 20.8905 18.2357C21.8695 17.9723 22.6406 17.2286 22.9023 16.2432C23.3778 14.457 23.3778 10.7305 23.3778 10.7305C23.3778 10.7305 23.3778 7.00388 22.9023 5.21775ZM9.6727 14.1139V7.347L15.6202 10.7305L9.6727 14.1139Z" fill="#111827"/>
</svg>
